<?xml version="1.0" encoding="UTF-8" standalone="no"?>
<!-- Generator: Adobe Illustrator 26.0.1, SVG Export Plug-In . SVG Version: 6.00 Build 0)  -->

<svg
   version="1.1"
   x="0px"
   y="0px"
   viewBox="0 0 192 192"
   xml:space="preserve"
   id="svg2"
   sodipodi:docname="favicon.svg"
   width="192"
   height="192"
   inkscape:version="1.3 (0e150ed6c4, 2023-07-21)"
   xmlns:inkscape="http://www.inkscape.org/namespaces/inkscape"
   xmlns:sodipodi="http://sodipodi.sourceforge.net/DTD/sodipodi-0.dtd"
   xmlns="http://www.w3.org/2000/svg"
   xmlns:svg="http://www.w3.org/2000/svg"><defs
   id="defs2" /><sodipodi:namedview
   id="namedview2"
   pagecolor="#ffffff"
   bordercolor="#000000"
   borderopacity="0.25"
   inkscape:showpageshadow="2"
   inkscape:pageopacity="0.0"
   inkscape:pagecheckerboard="0"
   inkscape:deskcolor="#d1d1d1"
   inkscape:zoom="1.0761588"
   inkscape:cx="60.40001"
   inkscape:cy="134.27387"
   inkscape:window-width="1920"
   inkscape:window-height="1027"
   inkscape:window-x="-8"
   inkscape:window-y="-8"
   inkscape:window-maximized="1"
   inkscape:current-layer="svg2" />&#10;<style
   type="text/css"
   id="style1">&#10;	.st0{fill:#336699;}&#10;	.st1{fill:#FFFFFF;}&#10;	.st2{fill:#FFFFFF;stroke:#006699;stroke-width:4;stroke-miterlimit:10;}&#10;</style>&#10;<g
   id="Слой_6"
   transform="matrix(1.5686274,0,0,1.5686274,2.5098039,1.7254902)">&#10;	<rect
   x="-1.6"
   y="-1.1"
   class="st0"
   width="122.4"
   height="122.4"
   id="rect1" />&#10;</g>&#10;<g
   id="Слой_3"
   transform="matrix(1.5686274,0,0,1.5686274,2.5098039,1.7254902)">&#10;	<g
   id="g1">&#10;		<path
   class="st1"
   d="m 7.4,6 h 48.3 c 28.5,0 52.8,22.2 52.8,54.6 0,31.3 -25.8,54.9 -52.8,54.9 H 7.4 Z M 55.7,27 H 33 V 94.6 H 55.7 C 74.2,94.6 88.1,80.5 88.1,60.7 88.1,40.8 74.4,27 55.7,27 Z"
   id="path1" />&#10;	</g>&#10;	<g
   id="g2">&#10;		<path
   class="st2"
   d="m 41,30.9 73.8,-0.2 v 19.4 l -48.4,0.3 v 1.2 l 45.2,-0.5 0.1,17 H 66.6 l 0.1,21.3 -25.9,-0.1 z"
   id="path2" />&#10;	</g>&#10;</g>&#10;<g
   id="Слой_4">&#10;</g>&#10;</svg>
