<?xml version="1.0" encoding="UTF-8" standalone="no"?>
<!-- Created with Inkscape (http://www.inkscape.org/) -->

<svg
   width="170"
   height="55"
   viewBox="0 0 44.979166 14.552083"
   version="1.1"
   id="svg1"
   inkscape:version="1.3 (0e150ed6c4, 2023-07-21)"
   sodipodi:docname="resqlru3_ed4.svg"
   inkscape:export-filename="resqlru3_ed4.png"
   inkscape:export-xdpi="96"
   inkscape:export-ydpi="96"
   xmlns:inkscape="http://www.inkscape.org/namespaces/inkscape"
   xmlns:sodipodi="http://sodipodi.sourceforge.net/DTD/sodipodi-0.dtd"
   xmlns="http://www.w3.org/2000/svg"
   xmlns:svg="http://www.w3.org/2000/svg">
  <sodipodi:namedview
     id="namedview1"
     pagecolor="#000000"
     bordercolor="#000000"
     borderopacity="0.25"
     inkscape:showpageshadow="2"
     inkscape:pageopacity="0.0"
     inkscape:pagecheckerboard="0"
     inkscape:deskcolor="#d1d1d1"
     inkscape:document-units="mm"
     inkscape:zoom="7.2130354"
     inkscape:cx="97.462436"
     inkscape:cy="48.59258"
     inkscape:window-width="1920"
     inkscape:window-height="1027"
     inkscape:window-x="-8"
     inkscape:window-y="-8"
     inkscape:window-maximized="1"
     inkscape:current-layer="layer1"
     showguides="true">
    <sodipodi:guide
       position="51.449007,1.4190469"
       orientation="0,-1"
       id="guide1"
       inkscape:locked="false" />
    <sodipodi:guide
       position="47.071329,13.423815"
       orientation="0,-1"
       id="guide2"
       inkscape:locked="false" />
  </sodipodi:namedview>
  <defs
     id="defs1" />
  <g
     inkscape:label="Layer 1"
     inkscape:groupmode="layer"
     id="layer1">
    <g
       id="g1"
       transform="matrix(0.98919261,0,0,1.0000913,0.01511292,-6.5279835e-4)">
      <path
         class="st0"
         d="M 4.5451498,8.7635257 V 2.3714214 H 9.3265756 V 3.9414119 H 6.2944519 v 0.7613864 h 2.457353 V 6.278691 h -2.457353 v 0.8381153 h 3.1820639 v 1.6467194 z"
         id="path1"
         style="fill:#80a9ce;fill-opacity:1;stroke:#ffffff;stroke-width:0.198324;stroke-miterlimit:10" />
      <path
         class="st1"
         d="M 24.087353,13.036733 V 1.314924 h 2.957154 l 0.04165,7.4486017 9.379591,-0.017707 -0.38318,4.2673053 z"
         id="path2"
         style="fill:#5182b5;fill-opacity:1;stroke:#ffffff;stroke-width:0.198;stroke-miterlimit:10;stroke-dasharray:none" />
      <path
         class="st0"
         d="m 33.337829,1.8579283 v 3.0455455 c 0,0.6256353 0.06664,1.0623996 0.204086,1.3043906 0.137445,0.241991 0.37485,0.3659376 0.712216,0.3659376 0.337365,0 0.57477,-0.1180444 0.70805,-0.3600354 0.133281,-0.241991 0.204086,-0.6787553 0.204086,-1.3043906 V 1.8579283 h 1.749302 v 3.2698298 c 0,1.0801063 -0.212416,1.8710038 -0.637246,2.3726925 -0.424831,0.5016887 -1.099561,0.7554841 -2.024192,0.7554841 -0.916302,0 -1.591032,-0.2537954 -2.020028,-0.7554841 C 31.805108,6.9928597 31.588527,6.2078644 31.588527,5.1277581 V 1.8579283 Z"
         id="path3"
         style="fill:#80a9ce;fill-opacity:1;stroke:#ffffff;stroke-width:0.198324;stroke-miterlimit:10" />
      <path
         class="st0"
         d="m 3.5205586,2.3891281 c 0.3915105,0 0.7080509,0.029511 0.9412911,0.082631 0.2374053,0.05312 0.4206655,0.1357511 0.5539457,0.2478933 0.1707652,0.1416533 0.2957154,0.3305243 0.3873455,0.5666131 0.09163,0.2360888 0.1332801,0.5134931 0.1332801,0.8263108 0,0.3777421 -0.06664,0.7082664 -0.1999202,0.9974752 C 5.2032206,5.3992603 5.0241254,5.605838 4.7908851,5.7297846 4.9908054,5.847829 5.1282505,5.9953845 5.2115506,6.1665489 c 0.079135,0.1770666 0.1291152,0.483982 0.1416102,0.9207463 0,0.047218 0.00416,0.1180444 0.00416,0.2006755 0.029155,0.8381152 0.1082901,1.2984884 0.2374053,1.3929239 V 8.7812323 H 3.6496738 C 3.5913637,8.6454813 3.5580437,8.3857836 3.5538786,7.9962371 3.5497136,7.7660505 3.5413836,7.5948861 3.5330536,7.4709395 3.5163936,7.2348507 3.4580835,7.0754907 3.3664534,6.9810552 3.2748233,6.8866197 3.1207181,6.8394019 2.8999729,6.8394019 H 1.8587216 V 8.7871345 H 0.08442948 V 2.3891281 Z M 1.8587216,5.151367 h 1.0204262 c 0.2665604,0 0.4539856,-0.047218 0.5622757,-0.135751 C 3.5497136,4.927083 3.6038587,4.7736249 3.6038587,4.5670472 3.6038587,4.3604695 3.5538787,4.212914 3.4497535,4.130283 3.3456284,4.0476519 3.1415432,4.0063363 2.8333328,4.0063363 H 1.8587216 Z"
         id="path4"
         style="fill:#80a9ce;fill-opacity:1;stroke:#ffffff;stroke-width:0.198324;stroke-miterlimit:10" />
      <path
         class="st1"
         d="m 22.325556,12.712111 c -0.24157,0.08263 -0.812176,0.247893 -1.103726,0.289209 -0.29155,0.04132 -0.608091,0.05902 -0.953786,0.05902 -1.686827,0 -2.952989,-0.489884 -3.798485,-1.463751 -0.845496,-0.973866 -1.266161,-2.4376166 -1.266161,-4.379447 0,-1.9300259 0.420665,-3.3878743 1.257831,-4.373545 0.837166,-0.9856707 2.082503,-1.475555 3.72768,-1.475555 1.645177,0 2.890513,0.4898843 3.727679,1.475555 0.837166,0.9856707 1.257832,2.4435191 1.257832,4.373545 0,0.991573 -0.108291,1.8473949 -0.324871,2.5733679 -0.21658,0.7259731 -0.35819,1.1391281 -0.795516,1.6231101 l 0.170765,0.283307 c 0.08747,0.147556 0.108291,0.141653 0.104126,1.327999 l -1.728477,0.05902 z M 19.889028,8.745819 19.584983,7.7011261 20.892794,7.164024 21.58835,8.1733037 c 0.03749,-0.035413 0.304046,-0.2478933 0.408171,-0.507591 0.06247,-0.1593599 0.14161,-0.4544709 0.154105,-0.885333 0.02499,-0.967964 -0.220745,-1.2925861 -0.545616,-1.8060793 -0.32487,-0.5134931 -0.795516,-0.7731908 -1.411936,-0.7731908 -0.616421,0 -1.082902,0.2596977 -1.411937,0.7731908 -0.32487,0.5134932 -0.616421,1.2689773 -0.487306,2.2310392 0.04165,0.3128176 0.183261,0.6492442 0.320706,0.8558219 0.06664,0.1062399 0.4165,0.5430042 1.070406,0.7200708 z"
         id="path5"
         style="fill:#5182b5;fill-opacity:1;stroke:#ffffff;stroke-width:0.198324;stroke-miterlimit:10" />
      <path
         class="st1"
         d="m 0.1010895,9.2947255 12.1368245,0.011804 c 0.237405,-0.0059 0.270725,-0.0059 0.645576,-0.0059 0.212415,0 0.212415,0 0.337365,0 0.304046,0 0.749701,0 0.749701,0 C 14.182971,9.2002899 14.041361,9.04093 14.041361,9.04093 13.949731,8.9110812 13.320815,8.7045035 13.12506,8.6513835 12.7752,8.556948 12.646085,8.503828 12.308719,8.397588 L 11.667308,8.1969125 C 10.980083,7.9549215 10.430302,7.671615 10.072111,7.1168063 9.713921,6.5619976 9.5348258,5.8242201 9.5348258,4.8975716 c 0,-1.233564 0.2707254,-2.1366037 0.8121762,-2.709119 0.54145,-0.5666131 1.399441,-0.8499197 2.582303,-0.8499197 1.228676,0 2.136647,0.2833066 2.736408,0.8499197 0.599761,0.5666131 0.920466,1.4519461 0.966281,2.655999 h -2.653108 c -0.02915,-0.348231 -0.14161,-0.6138309 -0.3332,-0.7908975 -0.195755,-0.1770666 -0.466481,-0.2655999 -0.816341,-0.2655999 -0.254066,0 -0.453986,0.064924 -0.599761,0.2006755 -0.145775,0.1298488 -0.220745,0.3128176 -0.220745,0.537102 0,0.2065777 0.05831,0.3718399 0.170765,0.4780798 0.112455,0.1121422 0.345695,0.2124799 0.703886,0.3069155 l 2.078337,0.5548086 c 0.649741,0.1770666 1.137047,0.5311998 1.457752,1.0683019 0.320705,0.537102 0.483141,1.2571728 0.483141,2.1661147 0,1.3575108 -0.320706,2.3490838 -0.962116,2.9806208 -0.641411,0.631538 -1.653507,0.950258 -3.040454,0.950258 -1.099561,0 -12.42004505,0 -12.42004505,0 C 0.27601971,11.401818 0.1843896,10.593214 0.1010895,9.2947255 Z"
         id="path6"
         style="fill:#5182b5;fill-opacity:1;stroke:#ffffff;stroke-width:0.198324;stroke-miterlimit:10" />
      <path
         class="st0"
         d="m 30.901301,1.8579283 c 0.391511,0 0.708051,0.029511 0.941292,0.082631 0.237405,0.05312 0.420665,0.1357511 0.553945,0.2478933 0.170765,0.1416533 0.295716,0.3305243 0.387346,0.5666131 0.08747,0.2360888 0.13328,0.5134931 0.13328,0.8263108 0,0.3777421 -0.06664,0.7082664 -0.19992,0.9974752 -0.133281,0.2892088 -0.312376,0.4957865 -0.545616,0.6197331 0.19992,0.1180444 0.337365,0.2655999 0.420666,0.4367643 0.07914,0.1770666 0.129115,0.483982 0.14161,0.9207463 0,0.047218 0.0042,0.1180444 0.0042,0.2006755 0.02915,0.8381152 0.10829,1.2984884 0.237405,1.3929239 v 0.1003377 h -1.945057 c -0.05831,-0.135751 -0.09163,-0.3954487 -0.09579,-0.7849952 -0.0042,-0.2301866 -0.0125,-0.401351 -0.02083,-0.5252976 -0.01666,-0.2360888 -0.07497,-0.3954488 -0.1666,-0.4898843 -0.09163,-0.094435 -0.245735,-0.1416533 -0.46648,-0.1416533 H 29.239464 V 8.2559347 H 27.465172 V 1.8579283 Z m -1.661837,2.7622389 h 1.020427 c 0.26656,0 0.453985,-0.047218 0.562275,-0.135751 0.108291,-0.088533 0.162436,-0.2419911 0.162436,-0.4485688 0,-0.2065777 -0.04998,-0.3541332 -0.154106,-0.4367642 -0.104125,-0.082631 -0.30821,-0.1239467 -0.61642,-0.1239467 h -0.974612 z"
         id="path7"
         style="fill:#80a9ce;fill-opacity:1;stroke:#ffffff;stroke-width:0.198324;stroke-miterlimit:10" />
    </g>
    <g
       id="Слой_4"
       transform="matrix(0.22598641,0,0,0.25887698,-85.60196,-38.019672)"
       style="fill:#b5d3f1;fill-opacity:1;stroke-width:0.852877;stroke-dasharray:none">
      <path
         class="st3"
         d="m 577,167 c -0.3,-1.7 -3.8,-5 -4.9,-5.6 -2.5,-1.3 -3.5,-0.4 -3.8,-0.8 -0.4,-0.5 0.3,-2.3 -0.5,-5 -0.4,-1.3 -1.4,-2.7 -2.2,-3.9 -0.7,-1.1 -1.6,-2.7 -3,-2.7 -1.2,0 -1.9,2.8 -2.2,3.9 -0.6,2.4 -0.5,5.8 -0.7,6.2 -0.2,0.5 -1.7,-2 -5.2,-4.1 -0.7,-0.4 -5.4,-2.9 -8,-1.6 -0.3,0.2 -0.6,0.2 -0.5,0.8 0,0.6 0.6,2.5 2.2,4.5 2.8,3.7 2.6,3.8 3.6,4.4 1.6,0.9 4.4,1.6 5.2,1.9 1.3,0.4 2,1.1 2,1.9 0.1,0.6 -0.4,1.2 -0.5,1.3 -0.7,0.5 -3.3,0.8 -5.1,1 -3.2,0.4 -5.3,3.1 -7.4,6.2 -2.1,3.2 -3.8,6.9 -3.4,10.9 0.3,3.4 0.6,5.6 5,8.7 0.3,0.2 0.2,1.1 0.8,1.8 1,1.2 5.9,1 6.7,0.1 0.5,-0.5 -0.5,-1.4 0,-1.9 0.4,-0.5 1.5,-0.6 2.1,-0.1 0.4,0.3 0.6,1.4 1.4,2.2 1.2,1.3 3.5,0.9 3.8,0.9 1.4,-0.2 2.3,-0.7 3,-0.8 0.9,-0.1 0.6,0.4 1.9,0.4 1.2,0.1 3.2,0.1 3.6,-0.5 0.3,-0.5 -0.6,-1 -1.1,-1.8 -1.4,-2.1 -1.6,-3 -1.8,-4 -0.1,-1.1 0.2,-1.2 2,-3.2 1.9,-2 3.1,-5.1 2.9,-7.8 -0.2,-3.8 -1.1,-6.5 -0.8,-7.3 0.4,-1 0.8,-0.9 2.4,-2 1.9,-1 2.8,-2.2 2.5,-4 z"
         id="path8"
         style="fill:#b5d3f1;fill-opacity:1;stroke-width:0.852877;stroke-dasharray:none" />
    </g>
  </g>
</svg>
